<svg width="57" height="53" viewBox="0 0 57 53" fill="none" xmlns="http://www.w3.org/2000/svg">
<path d="M44.557 29.225L34 37.9167H19.8333V35H31.3508C31.6071 34.9999 31.8585 34.9282 32.0783 34.7926C32.2981 34.657 32.4781 34.4626 32.599 34.23C32.72 33.9974 32.7774 33.7355 32.7652 33.472C32.7529 33.2085 32.6715 32.9534 32.5295 32.7337L30.0135 28.8488C29.4974 28.049 28.797 27.3932 27.9749 26.9398C27.1527 26.4863 26.2344 26.2494 25.3017 26.25H2.83333C2.08189 26.25 1.36122 26.5573 0.829864 27.1043C0.298511 27.6513 0 28.3931 0 29.1667V46.6667C0 48.2138 0.597022 49.6975 1.65973 50.7915C2.72243 51.8854 4.16377 52.5 5.66667 52.5H32.9772C34.1887 52.5003 35.3863 52.234 36.4897 51.7188C37.5931 51.2037 38.5768 50.4518 39.3748 49.5133L56.6667 29.1667L52.5527 27.755C51.2067 27.2931 49.7698 27.1857 48.3731 27.4425C46.9764 27.6993 45.6645 28.3121 44.557 29.225ZM48.8977 12.8042C50.1755 11.4479 50.966 9.5725 50.966 7.50167C50.966 5.43083 50.1755 3.55542 48.8977 2.19917C48.2514 1.50494 47.4756 0.952281 46.6168 0.574373C45.7579 0.196465 44.8337 0.00109852 43.8997 1.87881e-07C43.8997 1.87881e-07 40.375 -0.00875041 36.8333 3.75083C33.2917 -0.00875041 29.767 1.87881e-07 29.767 1.87881e-07C28.8332 0.00122256 27.9093 0.196359 27.0505 0.57373C26.1918 0.951102 25.4158 1.50295 24.769 2.19625C23.4912 3.55542 22.7007 5.42792 22.7007 7.49875C22.7007 9.56958 23.4912 11.4479 24.769 12.8013L36.8333 26.25L48.8977 12.8042Z" fill="#EAB307"/>
</svg>
