<svg width="57" height="53" viewBox="0 0 57 53" fill="none" xmlns="http://www.w3.org/2000/svg">
<path d="M28.2572 4.54417C25.17 1.62197 21.1291 0.000135781 16.9352 0C14.7154 0.00237913 12.5179 0.456632 10.4693 1.33662C8.42074 2.2166 6.56141 3.50494 4.99835 5.1275C-1.66848 12.0196 -1.66565 22.7996 5.00402 29.6625L25.778 51.0475C26.2597 51.9196 27.189 52.4825 28.2572 52.4825C28.6958 52.4781 29.1273 52.3679 29.517 52.1607C29.9067 51.9536 30.2438 51.6552 30.5012 51.2896L51.5104 29.6625C58.18 22.7967 58.18 12.0196 51.5047 5.11583C49.9424 3.49626 48.0846 2.21053 46.038 1.33258C43.9914 0.45462 41.7964 0.00174885 39.5792 0C35.3854 0.000705714 31.3447 1.62246 28.2572 4.54417ZM47.4984 9.24C51.9269 13.8221 51.9297 20.9796 47.504 25.5383L28.2572 45.3513L9.01035 25.5383C4.58469 20.9796 4.58752 13.8221 9.00469 9.25167C11.158 7.04667 13.9744 5.83333 16.9352 5.83333C19.896 5.83333 22.701 7.04667 24.8374 9.24583L26.254 10.7042C26.5169 10.9753 26.8292 11.1903 27.1729 11.3371C27.5166 11.4838 27.8851 11.5593 28.2572 11.5593C28.6293 11.5593 28.9978 11.4838 29.3415 11.3371C29.6852 11.1903 29.9975 10.9753 30.2604 10.7042L31.677 9.24583C35.961 4.84458 43.22 4.85625 47.4984 9.24Z" fill="#EFA392"/>
</svg>
