<svg width="68" height="70" viewBox="0 0 68 70" fill="none" xmlns="http://www.w3.org/2000/svg">
<path d="M56.6666 8.75H11.3333C9.8304 8.75 8.38906 9.36458 7.32635 10.4585C6.26365 11.5525 5.66663 13.0362 5.66663 14.5833V20.4167C5.6726 21.4347 5.93726 22.4333 6.43432 23.3134C6.93137 24.1935 7.64351 24.9243 8.49996 25.4333V55.4167C8.49996 56.9638 9.09698 58.4475 10.1597 59.5415C11.2224 60.6354 12.6637 61.25 14.1666 61.25H53.8333C55.3362 61.25 56.7775 60.6354 57.8402 59.5415C58.9029 58.4475 59.5 56.9638 59.5 55.4167V25.4333C60.3564 24.9243 61.0686 24.1935 61.5656 23.3134C62.0627 22.4333 62.3273 21.4347 62.3333 20.4167V14.5833C62.3333 13.0362 61.7363 11.5525 60.6736 10.4585C59.6109 9.36458 58.1695 8.75 56.6666 8.75ZM11.3333 14.5833H56.6666V20.4167H11.3333V14.5833ZM14.1666 55.4167V26.25H53.8333V55.4167H14.1666Z" fill="#80DE92"/>
<path d="M22.6666 32.0833H45.3333V37.9166H22.6666V32.0833Z" fill="#80DE92"/>
</svg>
