<svg width="63" height="47" viewBox="0 0 63 47" fill="none" xmlns="http://www.w3.org/2000/svg">
<path d="M2.112 46.08L0.192004 43.392C1.856 43.392 3.904 43.104 6.336 42.528C8.768 41.888 11.2 40.96 13.632 39.744C16.128 38.464 18.176 36.928 19.776 35.136C22.208 32.512 23.424 30.208 23.424 28.224C22.784 28.928 21.568 29.568 19.776 30.144C18.048 30.656 16.192 30.912 14.208 30.912C11.456 30.912 8.992 30.24 6.816 28.896C4.704 27.552 3.04 25.76 1.824 23.52C0.608004 21.216 4.17233e-06 18.688 4.17233e-06 15.936C4.17233e-06 11.264 1.472 7.45596 4.416 4.51196C7.36 1.50396 11.264 -4.3869e-05 16.128 -4.3869e-05C19.52 -4.3869e-05 22.528 0.831957 25.152 2.49596C27.84 4.15996 29.824 6.46396 31.104 9.40796C32.32 6.46396 34.208 4.15996 36.768 2.49596C39.328 0.831957 42.432 -4.3869e-05 46.08 -4.3869e-05C49.28 -4.3869e-05 52.16 0.767956 54.72 2.30396C57.28 3.77596 59.296 5.95196 60.768 8.83196C62.24 11.648 62.976 15.104 62.976 19.2C62.976 22.464 62.272 25.664 60.864 28.8C59.456 31.872 57.504 34.656 55.008 37.152C52.576 39.584 49.728 41.504 46.464 42.912C41.6 45.024 36.8 46.08 32.064 46.08L30.144 43.392C31.808 43.392 33.856 43.104 36.288 42.528C38.72 41.888 41.152 40.96 43.584 39.744C46.08 38.464 48.128 36.928 49.728 35.136C52.16 32.512 53.376 30.208 53.376 28.224C52.736 28.928 51.52 29.568 49.728 30.144C48 30.656 46.144 30.912 44.16 30.912C39.04 30.912 35.136 28.8 32.448 24.576C31.424 28.8 29.344 32.608 26.208 36C23.072 39.392 19.296 41.92 14.88 43.584C10.4 45.248 6.144 46.08 2.112 46.08Z" fill="#3D3D4E"/>
</svg>
